<?xml version="1.0" encoding="iso-8859-1"?>
<!-- Generator: Adobe Illustrator 16.0.0, SVG Export Plug-In . SVG Version: 6.00 Build 0)  -->
<!DOCTYPE svg PUBLIC "-//W3C//DTD SVG 1.1//EN" "http://www.w3.org/Graphics/SVG/1.1/DTD/svg11.dtd">
<svg version="1.1" id="Capa_1" xmlns="http://www.w3.org/2000/svg" xmlns:xlink="http://www.w3.org/1999/xlink" x="0px" y="0px"
	 width="574.781px" height="574.781px" viewBox="0 0 574.781 574.781" style="enable-background:new 0 0 574.781 574.781;"
	 xml:space="preserve">
<g>
	<g>
		<path d="M194.956,92.435v50.992c0,5.915,4.795,10.71,10.71,10.71c5.915,0,10.71-4.795,10.71-10.71V92.435
			c0-5.915-4.795-10.71-10.71-10.71C199.751,81.725,194.956,86.52,194.956,92.435z"/>
		<path d="M205.666,420.645c-5.915,0-10.71,4.795-10.71,10.709v50.992c0,5.916,4.795,10.711,10.71,10.711
			c5.915,0,10.71-4.795,10.71-10.711v-50.992C216.376,425.439,211.584,420.645,205.666,420.645z"/>
		<path d="M72.412,287.39c0-5.915-4.795-10.71-10.71-10.71H10.71C4.795,276.68,0,281.475,0,287.39
			c0,5.915,4.795,10.709,10.71,10.709h50.992C67.617,298.1,72.412,293.305,72.412,287.39z"/>
		<path d="M335.951,141.963l-36.059,36.056c-4.184,4.18-4.184,10.964,0,15.144c2.093,2.093,4.831,3.137,7.573,3.137
			s5.483-1.047,7.573-3.137l36.06-36.056c4.183-4.18,4.183-10.964,0-15.144C346.915,137.781,340.135,137.777,335.951,141.963z"/>
		<path d="M315.036,381.617c-4.18-4.184-10.964-4.184-15.146,0c-4.184,4.18-4.184,10.963,0,15.143l36.059,36.057
			c2.09,2.094,4.832,3.137,7.573,3.137c2.742,0,5.483-1.047,7.574-3.137c4.183-4.18,4.183-10.963,0-15.145L315.036,381.617z"/>
		<path d="M96.295,381.617l-36.056,36.055c-4.183,4.182-4.183,10.965,0,15.145c2.093,2.094,4.835,3.137,7.573,3.137
			c2.739,0,5.484-1.047,7.574-3.137l36.056-36.057c4.183-4.18,4.183-10.963,0-15.143
			C107.259,377.434,100.478,377.434,96.295,381.617z"/>
		<path d="M60.239,141.963c-4.183,4.18-4.183,10.964,0,15.144l36.056,36.056c2.093,2.093,4.834,3.137,7.573,3.137
			s5.483-1.047,7.574-3.137c4.183-4.18,4.183-10.964,0-15.144l-36.056-36.056C71.203,137.777,64.422,137.777,60.239,141.963z"/>
		<path d="M289.69,289.686c0-19.817,3.822-38.746,10.7-56.146c-19.296-31.043-53.69-51.72-92.929-51.72
			c-60.395,0-109.355,48.96-109.355,109.355c0,60.395,48.96,109.355,109.355,109.355c39.722,0,74.496-21.186,93.648-52.869
			C293.77,329.766,289.69,310.197,289.69,289.686z"/>
		<path d="M442.944,157.851c-64.208,0-117.666,45.909-129.41,106.687c-1.573,8.143-2.424,16.545-2.424,25.149
			c0,9.184,0.945,18.146,2.732,26.801c12.381,59.961,65.475,105.033,129.104,105.033c72.81,0,131.834-59.023,131.834-131.834
			C574.781,216.878,515.754,157.851,442.944,157.851z"/>
	</g>
</g>
<g>
</g>
<g>
</g>
<g>
</g>
<g>
</g>
<g>
</g>
<g>
</g>
<g>
</g>
<g>
</g>
<g>
</g>
<g>
</g>
<g>
</g>
<g>
</g>
<g>
</g>
<g>
</g>
<g>
</g>
</svg>
